Coordinates
version=1
nRows=10
nColumns=22
inDegrees=yes

Units are S.I. units (second, meters, Newtons, ...)
If the header above contains a line with 'inDegrees', this indicates whether rotational values are in degrees (yes) or radians (no).

endheader
time	pelvis_tilt	pelvis_list	pelvis_rotation	pelvis_tx	pelvis_ty	pelvis_tz	hip_flexion_r	hip_adduction_r	hip_rotation_r	knee_angle_r	ankle_angle_r	subtalar_angle_r	hip_flexion_l	hip_adduction_l	hip_rotation_l	knee_angle_l	ankle_angle_l	subtalar_angle_l	lumbar_extension	lumbar_bending	lumbar_rotation
      5.74000000	    -11.04602396	     -2.67202736	     -7.04533920	      1.18555149	      0.97588098	      0.39335366	     11.03083040	      5.91220852	      0.18497932	    -36.84876666	     14.08746892	     11.70712405	     30.23140442	     -0.40442032	     -1.95444204	    -25.16463688	     11.53481364	     -2.05502496	      2.76166019	      5.52359012	      6.05642983
      5.75000000	    -10.94132593	     -2.44693397	     -6.91430075	      1.18990040	      0.97587962	      0.39225203	     11.36003641	      5.44111315	     -0.04072994	    -37.94315290	     13.62011962	     12.58564685	     29.88338680	     -0.03344891	     -1.99091696	    -25.16492346	     11.83025154	     -2.08631567	      2.73310750	      5.22243302	      5.88405665
      5.76000000	    -10.82996203	     -2.23741166	     -6.79592568	      1.19412721	      0.97589039	      0.39120346	     11.69759176	      4.99055665	     -0.22021455	    -39.05078059	     13.11949903	     13.53281270	     29.52234975	      0.31913789	     -2.00607443	    -25.14687312	     12.11927110	     -2.13246022	      2.68389530	      4.93460091	      5.74250824
      5.77000000	    -10.71069975	     -2.03160789	     -6.68778426	      1.19822758	      0.97590409	      0.39020492	     12.04922979	      4.54755442	     -0.36244542	    -40.18347657	     12.62417678	     14.48140017	     29.15563640	      0.66163961	     -2.03199889	    -25.12252259	     12.39505314	     -2.19186470	      2.61405515	      4.64729271	      5.61503302
      5.78000000	    -10.58889754	     -1.83725470	     -6.59743074	      1.20219219	      0.97592347	      0.38927284	     12.42203335	      4.12611516	     -0.45373211	    -41.34301983	     12.14849367	     15.49318467	     28.78464081	      0.98466325	     -2.05481022	    -25.08617695	     12.66527241	     -2.26684034	      2.52876606	      4.37034530	      5.51450922
      5.79000000	    -10.47523685	     -1.65888849	     -6.53055357	      1.20601232	      0.97594318	      0.38841842	     12.82769228	      3.73287657	     -0.49548964	    -42.52652428	     11.71730594	     16.59266944	     28.41765358	      1.28209491	     -2.06091378	    -25.03335877	     12.92374268	     -2.35520951	      2.43982521	      4.11071953	      5.45284002
      5.80000000	    -10.37741542	     -1.45634315	     -6.48507223	      1.20968842	      0.97591396	      0.38763773	     13.29046344	      3.31914262	     -0.51254597	    -43.76021968	     11.42004811	     17.65518365	     28.08082782	      1.58316889	     -2.12895330	    -24.98527414	     13.16988150	     -2.45134713	      2.36449138	      3.82335190	      5.38816470
      5.81000000	    -10.31775552	     -1.25917017	     -6.47228702	      1.21320831	      0.97584461	      0.38694875	     13.82132301	      2.92330024	     -0.49068024	    -45.01179959	     11.23956719	     18.79252688	     27.77841365	      1.86351713	     -2.18032647	    -24.91430267	     13.39907413	     -2.55455892	      2.32371869	      3.54621124	      5.36935019
      5.82000000	    -10.30397321	     -1.05392623	     -6.48757471	      1.21657558	      0.97571344	      0.38635126	     14.42891090	      2.52728566	     -0.44933809	    -46.27216050	     11.21352053	     19.89947710	     27.52762074	      2.13004218	     -2.25452128	    -24.83308863	     13.61192392	     -2.65830747	      2.33141995	      3.26410531	      5.37038952
      5.83000000	    -10.33702776	     -0.83620713	     -6.52801801	      1.21978202	      0.97552561	      0.38583764	     15.11071817	      2.12604431	     -0.39464318	    -47.52160666	     11.35957356	     20.90295784	     27.32841352	      2.39103773	     -2.34079508	    -24.73556620	     13.79767016	     -2.75833028	      2.38752597	      2.97185395	      5.39389336
